<?xml version="1.0" encoding="UTF-8"?>
<svg id="Layer_1" data-name="Layer 1" xmlns="http://www.w3.org/2000/svg" viewBox="0 0 206.67 220.67">
  <defs>
    <style>
      .cls-1 {
        fill: #000;
        stroke-width: 0px;
      }
    </style>
  </defs>
  <path class="cls-1" d="M203.67,1.44c-2.11,21.78-6.43,43.36-13.16,64.19-6.66,20.6-15.71,40.45-27.33,58.74s-25.32,34.29-41.55,48.09c-15.69,13.34-33.49,24.36-52.56,32.17-19.06,7.8-39.45,12.46-60.07,13.01-2.52.07-5.04.07-7.55.02-1.93-.04-1.93,2.96,0,3,20.89.42,41.76-3.3,61.38-10.42s38.21-17.63,54.73-30.6,31.46-29.13,43.6-46.78c12.49-18.17,22.32-38.1,29.68-58.86,7.39-20.82,12.27-42.48,14.94-64.4.33-2.71.62-5.42.89-8.14.19-1.92-2.82-1.91-3,0h0Z"/>
</svg>