<?xml version="1.0" encoding="UTF-8"?>
<svg id="Layer_1" data-name="Layer 1" xmlns="http://www.w3.org/2000/svg" viewBox="0 0 153.1 266.1">
  <defs>
    <style>
      .cls-1 {
        fill: #000;
        stroke-width: 0px;
      }
    </style>
  </defs>
  <path class="cls-1" d="M152.19,263.13c-19.93-9.03-38.96-20.08-56.51-33.18-17.35-12.95-33.21-27.93-46.77-44.83-13.56-16.9-24.28-35.03-32.1-54.85-7.56-19.16-12.25-39.56-13.48-60.13-1.23-20.56.94-41.36,7.08-61.05.75-2.41,1.56-4.79,2.42-7.15.66-1.81-2.18-2.78-2.84-.97C2.84,20.61-.37,41.56.03,62.43c.41,20.87,4.35,41.86,11.3,61.68,6.94,19.82,17.42,39.18,30.2,56.37,13.17,17.69,28.86,33.42,46.13,47.09,17.32,13.72,36.25,25.33,56.13,34.93,2.46,1.19,4.93,2.34,7.42,3.47,1.76.8,2.72-2.05.97-2.84h.02Z"/>
</svg>